<?xml version="1.0" standalone="no"?>
<!DOCTYPE svg PUBLIC "-//W3C//DTD SVG 1.1//EN" "http://www.w3.org/Graphics/SVG/1.1/DTD/svg11.dtd"><svg t="1598782435912"
    class="icon" viewBox="0 0 1024 1024" version="1.1" xmlns="http://www.w3.org/2000/svg" p-id="5640"
    xmlns:xlink="http://www.w3.org/1999/xlink" width="200" height="200">
    <defs>
        <style type="text/css"></style>
    </defs>
    <path
        d="M657.4 364.2l246.1 37.3c18.3 2.8 25.4 25.3 12.1 38.1L736.4 612.2c-5.3 5.1-7.7 12.5-6.5 19.7l40.6 245.6c3 18.2-16.2 32-32.5 23.3L518.4 783.6c-6.5-3.5-14.2-3.5-20.7-0.1L276.6 898c-16.4 8.5-35.4-5.5-32.2-23.7L288 629.2c1.3-7.2-1.1-14.6-6.3-19.8L104.5 434.6c-13.1-13-5.7-35.4 12.6-37.9l246.5-34.3c7.3-1 13.6-5.5 16.9-12.1L492 127.8c8.3-16.5 31.9-16.4 40 0.2l108.8 223.9c3.1 6.6 9.4 11.2 16.6 12.3z"
        p-id="5641" data-spm-anchor-id="a313x.7781069.0.i2" class="selected"></path>
</svg>